<?xml version="1.0" encoding="UTF-8"?>
<svg width="71px" height="27px" viewBox="0 0 71 27" version="1.1" xmlns="http://www.w3.org/2000/svg" xmlns:xlink="http://www.w3.org/1999/xlink">
    <!-- Generator: Sketch 49.3 (51167) - http://www.bohemiancoding.com/sketch -->
    <title>scratch</title>
    <desc>Created with Sketch.</desc>
    <defs></defs>
    <g id="mDesinger-IPAD" stroke="none" stroke-width="1" fill="none" fill-rule="evenodd">
        <g id="主页" transform="translate(-21.000000, -10.000000)" fill-rule="nonzero">
            <g id="scratch" transform="translate(21.000000, 10.000000)">
                <path d="M64.6467276,26.3441296 C63.7868414,26.4534413 63.2494125,26.4534413 63.0344409,26.562753 C62.6044977,26.7813765 61.6371257,27 60.4547821,27 C58.9499811,27 57.5526659,26.4534413 56.3703223,25.5789474 L55.510436,25.5789474 C55.1879787,25.5789474 54.9730071,25.5789474 54.6505497,25.4696356 C53.4682061,25.9068826 52.3933483,25.9068826 51.7484336,25.9068826 L51.533462,25.9068826 C50.028661,26.0161943 48.52386,25.6882591 47.2340306,25.0323887 C46.5891159,25.2510121 46.051687,25.3603239 45.4067723,25.3603239 L41.4297983,25.4696356 C39.60254,25.4696356 37.9902532,24.8137652 36.7004238,23.611336 C36.1629949,23.611336 35.625566,23.5020243 35.1956228,23.3927126 C34.5507081,24.1578947 33.6908219,24.8137652 32.615964,25.3603239 C30.5737341,26.3441296 28.3165327,26.4534413 26.166817,25.5789474 C25.9518454,25.4696356 25.6293881,25.3603239 25.4144165,25.2510121 L22.9422435,25.5789474 L22.189843,25.5789474 C21.8673856,25.6882591 21.652414,25.9068826 21.4374425,26.0161943 C19.8251557,26.7813765 18.3203547,26.7813765 17.67544,26.7813765 L17.1380111,26.7813765 C15.3107528,26.7813765 13.4834945,26.2348178 12.0861793,25.2510121 C11.6562361,25.3603239 11.1188072,25.4696356 10.6888641,25.4696356 C9.72149202,26.1255061 8.5391484,26.562753 7.24931899,26.6720648 L6.81937585,26.6720648 C3.27234498,26.6720648 0.370228812,23.9392713 0.0477714596,20.3319838 L0.0477714596,20.2226721 C0.0477714596,19.6761134 -0.0597143244,18.4736842 0.0477714596,17.1619433 C0.0477714596,16.5060729 0.155257244,15.5222672 0.155257244,15.3036437 C0.155257244,14.4291498 0.370228812,13.5546559 0.692686164,12.6801619 C0.477714596,11.805668 0.58520038,10.9311741 0.692686164,10.0566802 L0.692686164,9.72874494 C0.800171948,8.96356275 1.01514352,7.43319838 1.767544,5.90283401 C3.1648592,3.27935223 5.74451801,1.63967611 8.64663418,1.63967611 C9.61400624,1.09311741 10.5813783,0.874493927 11.6562361,0.874493927 L11.9786935,0.874493927 C14.1284092,0.983805668 16.0631533,2.07692308 17.2454969,3.82591093 C18.212869,2.951417 19.3952126,2.4048583 20.685042,2.18623482 C23.2647008,1.8582996 25.4144165,1.74898785 27.2416748,2.07692308 C28.2090469,1.20242915 29.4988763,0.546558704 30.7887057,0.437246964 L33.5833361,0 L34.4432223,0 C36.0555091,0 37.6677959,0.655870445 38.9576253,1.74898785 L39.1725968,1.74898785 L43.2570566,1.63967611 C44.9768292,1.63967611 46.4816301,1.53036437 46.8040875,1.53036437 L47.3415164,1.53036437 C48.8463174,1.53036437 50.4586042,2.07692308 51.6409478,3.06072874 C52.8232914,2.18623482 54.2206066,1.74898785 55.7254076,1.74898785 L57.1227228,1.74898785 C58.1975806,1.09311741 59.3799242,0.655870445 60.6697536,0.655870445 L64.1092987,0.546558704 L64.2167845,0.546558704 C67.8713012,0.546558704 70.8809031,3.60728745 70.9883889,7.32388664 C70.9883889,9.07287449 70.45096,10.6032389 69.3761021,11.9149798 L69.3761021,15.0850202 C70.3434742,16.1781377 70.8809031,17.5991903 70.9883889,19.1295547 C71.2033605,22.8461538 68.4087301,26.0161943 64.6467276,26.3441296 Z" id="Shape" fill="#FFFFFF"></path>
                <path d="M64.2151591,22.2485876 C62.8258525,22.3559322 61.9708946,22.4632768 61.7571552,22.5706215 L61.6502854,22.6779661 C61.3296762,22.7853107 60.9021973,23 60.3678486,23 C59.7266302,23 58.978542,22.7853107 58.4441934,22.2485876 C58.2304539,22.0338983 58.0167144,21.819209 57.9098447,21.6045198 L55.4518407,21.6045198 C55.0243618,21.6045198 54.5968829,21.4971751 54.2762736,21.2824859 C54.1694039,21.3898305 53.9556644,21.3898305 53.8487947,21.4971751 C52.9938368,21.9265537 52.2457487,21.9265537 51.7114,21.9265537 L51.1770513,21.9265537 C49.5740053,21.9265537 48.2915684,21.3898305 47.4366105,20.4237288 C46.9022619,20.960452 46.1541737,21.2824859 45.4060855,21.2824859 L41.4519053,21.3898305 C40.0625987,21.3898305 38.7801619,20.3163842 38.5664224,19.0282486 C38.0320738,19.3502825 37.4977251,19.5649718 36.8565067,19.5649718 C36.2152882,19.5649718 35.5740698,19.3502825 35.0397211,19.0282486 C34.9328514,18.920904 34.8259817,18.8135593 34.7191119,18.8135593 C34.3985027,19.0282486 33.9710238,19.0282486 33.5435448,19.0282486 L33.2229356,19.0282486 C32.7954567,20.3163842 32.0473685,21.1751412 30.8718014,21.7118644 C30.3374527,21.9265537 29.6962343,22.1412429 29.1618857,22.1412429 C28.627537,22.1412429 27.9863186,22.0338983 27.4519699,21.819209 C26.9176212,21.6045198 26.4901422,21.2824859 26.169533,20.960452 C25.9557936,21.0677966 25.7420541,21.0677966 25.5283146,21.1751412 L22.4290923,21.6045198 L22.0016133,21.6045198 C21.6810041,21.6045198 21.4672647,21.6045198 21.1466554,21.4971751 C20.7191765,21.9265537 20.1848278,22.1412429 19.7573489,22.3559322 C18.902391,22.7853107 18.1543028,22.7853107 17.6199541,22.7853107 L17.0856055,22.7853107 C15.1619502,22.7853107 13.6657739,21.9265537 12.810816,20.7457627 C11.9558581,21.2824859 10.8871608,21.6045198 9.92533315,21.6045198 L9.28411473,21.6045198 C9.28411473,21.7118644 9.17724499,21.7118644 9.17724499,21.819209 C8.64289631,22.3559322 7.89480816,22.7853107 7.14672001,22.7853107 L6.93298054,22.7853107 C5.43680423,22.7853107 4.1543674,21.6045198 4.04749766,19.9943503 L4.04749766,19.8870056 C4.04749766,19.3502825 3.94062792,18.3841808 4.04749766,17.3107345 C4.04749766,16.559322 4.1543674,15.3785311 4.1543674,15.3785311 C4.1543674,14.6271186 4.47497661,13.9830508 4.90245555,13.4463277 C4.47497661,12.5875706 4.36810687,11.6214689 4.58184634,10.5480226 L4.58184634,10.3333333 C4.68871608,9.68926554 4.79558581,8.72316384 5.22306476,7.75706215 C5.97115291,6.36158192 7.36045948,5.61016949 8.96350552,5.61016949 L9.71159368,5.61016949 C10.2459424,5.18079096 10.8871608,4.85875706 11.6352489,4.85875706 C13.238295,4.85875706 14.5207318,6.25423729 14.5207318,7.86440678 L14.5207318,9.04519774 C15.0550805,8.83050847 15.6962989,8.72316384 16.3375173,8.72316384 C16.6581265,8.72316384 16.871866,8.72316384 17.1924752,8.83050847 C17.6199541,8.29378531 18.2611726,7.97175141 18.902391,7.86440678 C19.0092607,7.64971751 19.1161305,7.54237288 19.2230002,7.32768362 C19.6504791,6.68361582 20.3985673,6.25423729 21.1466554,6.14689266 C21.7878739,6.03954802 23.0703107,5.93220339 24.566487,5.93220339 C26.2764028,5.93220339 27.6657093,6.14689266 28.7344067,6.68361582 C29.0550159,5.50282486 29.9099738,4.6440678 31.1924106,4.42937853 L33.9710238,4 L34.3985027,4 C35.2534606,4 36.0015488,4.3220339 36.5358974,4.96610169 C36.7496369,5.18079096 37.0702461,5.61016949 37.1771159,5.93220339 L37.2839856,6.25423729 C37.8183343,5.93220339 38.352683,5.71751412 38.9939014,5.71751412 L43.1618211,5.61016949 C45.1923461,5.61016949 47.0091316,5.50282486 47.0091316,5.39548023 L47.2228711,5.39548023 C47.9709592,5.39548023 48.8259171,5.71751412 49.3602658,6.25423729 C49.7877447,6.68361582 50.1083539,7.22033898 50.2152237,7.86440678 L50.4289631,7.86440678 C50.7495724,7.86440678 50.9633118,7.86440678 51.283921,7.97175141 C51.7114,7.43502825 52.3526184,7.11299435 52.9938368,7.00564972 C53.5281855,6.25423729 54.4900131,5.61016949 55.5587105,5.61016949 L58.3373236,5.61016949 C58.8716723,4.96610169 59.6197605,4.53672316 60.5815881,4.53672316 L64.0014196,4.53672316 C65.6044657,4.53672316 66.8869025,5.82485876 66.9937722,7.43502825 C66.9937722,8.61581921 66.3525538,9.68926554 65.3907262,10.1186441 L65.3907262,16.6666667 C66.2456841,17.0960452 66.8869025,18.0621469 66.9937722,19.1355932 C67.100642,20.7457627 65.8182051,22.1412429 64.2151591,22.2485876 Z" id="Shape" fill="#F9A83A"></path>
                <polygon id="Shape" fill="#F9A83A" points="34.7 9 34 13 36 12.6666667"></polygon>
                <path d="M8.95778364,13.287034 C8.20336919,13.1786369 7.77227522,12.6366512 7.9878222,11.1190913 L7.9878222,10.902297 C8.20336919,9.60153133 8.31114268,9.27633991 8.95778364,9.27633991 C9.17333063,9.27633991 9.38887761,9.38473705 9.6044246,9.60153133 C9.81997159,9.81832561 10.2510656,10.143517 10.4666125,10.7938999 C10.6821595,11.2274884 10.6821595,11.5526798 10.789933,11.8778712 L10.789933,12.3114598 C10.789933,12.5282541 11.00548,12.7450484 11.3288005,12.8534455 C11.652121,12.9618426 11.9754414,12.6366512 12.0832149,12.3114598 C12.0832149,12.3114598 12.2987619,8.19236853 12.2987619,8.08397139 C12.2987619,7.75877997 11.9754414,7.43358856 11.652121,7.43358856 C11.3288005,7.43358856 11.00548,7.75877997 11.00548,8.08397139 L11.00548,9.27633991 C10.4666125,8.73435422 9.81997159,8.19236853 9.06555713,8.19236853 C7.01786077,7.86717711 6.80231378,9.70992847 6.69454029,10.7938999 L6.69454029,11.0106941 C6.4789933,13.0702398 7.12563426,14.3710054 8.74223666,14.6961969 C10.4666125,15.0213883 11.652121,15.3465797 11.652121,16.4305511 C11.652121,16.8641396 11.436574,17.2977282 11.00548,17.6229196 C10.574386,18.0565082 9.92774508,18.1649053 9.28110412,18.0565082 C9.06555713,18.0565082 8.95778364,17.948111 8.74223666,17.948111 C8.52668967,17.8397139 7.88004871,17.5145225 7.66450173,17.0809339 C7.55672823,16.6473454 7.44895474,16.1053597 7.44895474,15.7801682 L7.44895474,15.563374 C7.44895474,15.2381825 7.12563426,14.9129911 6.80231378,14.9129911 C6.4789933,14.9129911 6.15567282,15.2381825 6.15567282,15.563374 C6.15567282,15.563374 6.15567282,16.8641396 6.04789933,17.6229196 C5.94012584,18.9236853 6.04789933,19.8992595 6.04789933,20.0076567 C6.04789933,20.3328481 6.37121981,20.6580395 6.69454029,20.6580395 C7.01786077,20.6580395 7.34118125,20.3328481 7.34118125,20.0076567 L7.34118125,18.8152881 C7.77227522,19.1404795 8.41891618,19.465671 9.17333063,19.5740681 C10.1432921,19.7908624 11.1132535,19.465671 11.867668,18.8152881 C12.5143089,18.2733024 12.9454029,17.4061253 12.9454029,16.6473454 C12.9454029,13.9374169 10.2510656,13.5038283 8.95778364,13.287034 M27.0637305,11.4442827 C26.955957,11.5526798 26.8481835,11.661077 26.6326365,11.7694741 C26.524863,11.8778712 26.2015425,11.9862684 26.093769,11.9862684 L25.7704485,12.0946655 C25.3393546,12.3114598 24.6927136,12.4198569 24.0460727,12.5282541 L24.0460727,9.49313419 C25.7704485,9.49313419 27.2792775,9.60153133 27.6025979,10.143517 L27.6025979,10.3603113 C27.6025979,10.5771056 27.3870509,11.0106941 27.0637305,11.4442827 M30.8358027,17.2977282 C30.5124822,17.189331 30.0813883,17.4061253 29.9736148,17.7313167 C29.7580678,18.4900967 29.5425208,18.4900967 29.4347473,18.5984939 C29.3269738,18.706891 29.1114268,18.5984939 28.7881064,18.4900967 C28.7881064,18.4900967 28.6803329,18.2733024 28.5725594,18.1649053 C28.4647859,17.948111 28.3570124,17.0809339 28.3570124,16.5389482 C28.3570124,14.5877997 27.9259184,13.5038283 27.3870509,12.9618426 C27.7103714,12.7450484 28.0336919,12.4198569 28.0336919,12.4198569 C28.7881064,11.3358856 29.0036533,10.4687084 28.5725594,9.70992847 C27.4948244,7.86717711 22.8605642,8.4091628 21.3517353,8.62595708 C21.0284149,8.62595708 20.7050944,9.05954564 20.8128679,9.38473705 C20.8128679,9.70992847 21.2439618,10.0351199 21.5672823,9.92672275 C21.8906028,9.92672275 22.2139233,9.81832561 22.5372438,9.81832561 L22.5372438,12.8534455 L22.2139233,12.8534455 C21.8906028,12.8534455 21.5672823,13.1786369 21.5672823,13.5038283 C21.5672823,13.8290197 21.8906028,14.1542112 22.2139233,14.1542112 L22.5372438,14.1542112 L22.5372438,17.948111 L21.6750558,18.0565082 C21.3517353,18.0565082 21.0284149,18.4900967 21.1361883,18.8152881 C21.1361883,19.1404795 21.5672823,19.465671 21.8906028,19.3572738 L25.0160341,18.9236853 C25.3393546,18.9236853 25.6626751,18.4900967 25.5549016,18.1649053 C25.5549016,17.8397139 25.1238076,17.5145225 24.8004871,17.6229196 L23.8305257,17.7313167 L23.8305257,13.9374169 C24.4771666,13.8290197 25.0160341,13.7206226 25.5549016,13.5038283 L25.7704485,13.5038283 C25.9859955,13.5038283 26.2015425,13.6122255 26.309316,13.8290197 C26.524863,14.1542112 26.74041,14.804594 26.8481835,16.4305511 C26.8481835,16.7557425 26.955957,18.0565082 27.171504,18.5984939 C27.2792775,18.8152881 27.6025979,19.3572738 28.1414654,19.5740681 C28.5725594,19.6824652 29.1114268,19.8992595 29.7580678,19.5740681 C30.2969353,19.2488767 30.7280292,18.9236853 30.9435762,17.948111 C31.3746702,17.7313167 31.1591232,17.4061253 30.8358027,17.2977282 M54.3304242,15.2381825 C54.0071037,15.2381825 53.6837832,15.563374 53.6837832,15.8885654 L53.6837832,16.7557425 C53.6837832,17.0809339 53.5760097,17.5145225 53.4682362,17.6229196 C53.3604628,17.8397139 53.2526893,17.948111 53.0371423,18.1649053 C52.9293688,18.2733024 52.7138218,18.3816996 52.4982748,18.4900967 C52.2827278,18.5984939 52.1749543,18.5984939 51.7438604,18.5984939 L51.3127664,18.5984939 C49.5883905,18.706891 49.3728435,17.2977282 49.3728435,16.9725368 L49.3728435,14.1542112 C49.480617,13.0702398 49.696164,12.3114598 50.127258,11.9862684 C50.4505784,11.7694741 50.8816724,11.8778712 51.6360869,12.0946655 C52.4982748,12.4198569 53.0371423,13.3954312 53.1449158,13.3954312 C53.2526893,13.6122255 53.5760097,13.7206226 53.8993302,13.7206226 C54.2226507,13.6122255 54.3304242,13.3954312 54.3304242,13.0702398 L54.3304242,10.143517 C54.3304242,9.81832561 54.0071037,9.49313419 53.6837832,9.49313419 C53.3604628,9.49313419 53.0371423,9.81832561 53.0371423,10.143517 L53.0371423,11.3358856 C52.8215953,11.1190913 52.4982748,11.0106941 52.1749543,10.7938999 C51.8516339,10.5771056 50.5583519,10.0351199 49.5883905,10.6855027 C48.8339761,11.2274884 48.2951086,12.2030627 48.1873351,13.8290197 L48.1873351,16.8641396 C48.2951086,17.8397139 49.049523,19.7908624 51.4205399,19.7908624 L51.7438604,19.7908624 C52.1749543,19.7908624 52.6060483,19.7908624 53.0371423,19.5740681 C53.3604628,19.465671 53.6837832,19.2488767 54.0071037,18.9236853 C54.2226507,18.706891 54.3304242,18.4900967 54.5459712,18.1649053 C54.7615182,17.7313167 54.8692917,16.9725368 54.9770652,16.7557425 L54.9770652,15.6717711 C54.9770652,15.4549768 54.6537447,15.2381825 54.3304242,15.2381825 M65,19.5740681 C65,19.2488767 64.6766795,18.9236853 64.353359,18.9236853 C64.1378121,18.9236853 63.8144916,18.9236853 63.4911711,19.0320824 C63.4911711,17.948111 63.4911711,15.6717711 63.3833976,8.30076567 L64.353359,8.30076567 C64.6766795,8.30076567 65,7.97557425 65,7.65038283 C65,7.32519142 64.6766795,7 64.353359,7 L60.9046073,7.10839714 C60.5812868,7.10839714 60.2579663,7.43358856 60.2579663,7.75877997 C60.2579663,8.08397139 60.5812868,8.4091628 60.9046073,8.4091628 L61.9823422,8.4091628 L61.9823422,12.9618426 L58.1024964,13.6122255 L58.1024964,9.49313419 L59.1802314,9.49313419 C59.5035519,9.49313419 59.8268723,9.16794278 59.8268723,8.84275136 C59.8268723,8.51755994 59.5035519,8.19236853 59.1802314,8.19236853 L55.7314796,8.19236853 C55.4081591,8.19236853 55.0848386,8.51755994 55.0848386,8.84275136 C55.0848386,9.16794278 55.4081591,9.49313419 55.7314796,9.49313419 L56.8092145,9.49313419 L56.8092145,18.2733024 L55.7314796,18.2733024 C55.4081591,18.2733024 55.0848386,18.5984939 55.0848386,18.9236853 C55.0848386,19.2488767 55.4081591,19.5740681 55.7314796,19.5740681 L59.2880049,19.6824652 C59.6113254,19.6824652 59.9346458,19.3572738 59.9346458,19.0320824 C59.9346458,18.706891 59.6113254,18.3816996 59.2880049,18.3816996 L58.2102699,18.3816996 L58.2102699,15.0213883 L62.0901157,14.3710054 L62.0901157,19.3572738 C61.2279277,19.5740681 60.5812868,19.5740681 60.2579663,20.0076567 C60.0424193,20.2244509 60.0424193,20.6580395 60.3657398,20.8748338 C60.5812868,21.091628 60.9046073,20.9832309 61.3357012,20.8748338 C61.6590217,20.6580395 62.9523036,20.5496423 64.4611325,20.4412452 C64.784453,20.2244509 65,19.8992595 65,19.5740681" id="Shape" fill="#FFFFFF"></path>
                <path d="M34.388584,13.0336578 L35.1565862,9.07722527 L36.582876,12.703955 L34.388584,13.0336578 Z M40.2034578,14.1326668 C39.9840286,14.2425677 39.6548848,14.3524686 38.9965972,14.6821713 L38.1188804,12.5940541 L35.5954446,6.54950451 C35.5954446,6.43960361 35.48573,6.2198018 35.3760154,6.2198018 C35.2663008,6.1099009 35.0468716,6 34.8274424,6 L31.9748628,6.32970271 C31.645719,6.32970271 31.3165752,6.65940541 31.4262898,7.09900902 C31.4262898,7.42871173 31.7554336,7.75841444 32.194292,7.64851354 C32.194292,7.64851354 33.291438,7.53861263 34.1691548,7.42871173 C33.9497256,8.63762166 32.9622942,13.5831623 32.6331504,15.1217749 L30.6582876,15.011874 C30.3291438,15.011874 30,15.2316758 30,15.6712794 C30,16.0009821 30.2194292,16.3306848 30.6582876,16.3306848 L33.9497256,16.4405857 C34.2788694,16.4405857 34.6080132,16.2207839 34.6080132,15.7811803 C34.6080132,15.4514776 34.388584,15.1217749 33.9497256,15.1217749 L34.0594402,14.1326668 L37.131449,13.5831623 L37.7897366,15.2316758 C37.2411636,15.5613785 37.0217344,15.6712794 36.6925906,16.0009821 C36.4731614,16.3306848 36.582876,16.6603875 36.8023052,16.8801893 C37.131449,17.0999911 37.5703074,16.9900902 37.7897366,16.7702884 C38.1188804,16.3306848 39.325741,15.7811803 40.5326016,15.3415767 C40.8617454,15.2316758 41.0811746,14.7920722 40.97146,14.4623695 C40.8617454,14.2425677 40.5326016,14.0227659 40.2034578,14.1326668 Z" id="Shape" fill="#FFFFFF"></path>
                <path d="M47.3605016,8 C47.3605016,8 45.4420063,8.11111111 43.3103448,8.22222222 L39.153605,8.33333333 C38.9404389,8.33333333 38.8338558,8.44444444 38.6206897,8.55555556 C38.5141066,8.66666667 38.4075235,8.88888889 38.5141066,9.11111111 L39.0470219,12.4444444 C39.0470219,12.7777778 39.4733542,13.1111111 39.7931034,13 C40.1128527,13 40.3260188,12.6666667 40.3260188,12.3333333 C40.3260188,12.3333333 40.1128527,10.5555556 39.8996865,9.66666667 L42.6708464,9.66666667 L42.6708464,18.4444444 L41.2852665,18.4444444 C40.9655172,18.4444444 40.645768,18.7777778 40.645768,19.1111111 C40.645768,19.4444444 40.9655172,19.7777778 41.2852665,19.7777778 L45.2288401,19.6666667 C45.5485893,19.6666667 45.8683386,19.3333333 45.8683386,19 C45.8683386,18.6666667 45.5485893,18.3333333 45.2288401,18.3333333 L43.9498433,18.3333333 L43.9498433,9.55555556 C45.015674,9.55555556 45.9749216,9.44444444 46.6144201,9.44444444 L46.6144201,10.7777778 C46.6144201,11.4444444 46.7210031,11.6666667 46.7210031,11.7777778 C46.9341693,12.1111111 47.2539185,12.2222222 47.5736677,12 C47.7868339,11.8888889 47.8934169,11.5555556 47.8934169,11.3333333 C47.8934169,11.3333333 47.8934169,9.77777778 48,8.88888889 C48,8.66666667 48,8.55555556 47.7868339,8.33333333 C47.7868339,8.11111111 47.5736677,8 47.3605016,8 M20.1818182,16.2222222 C19.862069,16.2222222 19.5423197,16.5555556 19.5423197,16.8888889 L19.5423197,17.8888889 C19.5423197,18.1111111 19.4357367,18.5555556 19.3291536,18.7777778 C19.2225705,19 19.1159875,19.1111111 18.9028213,19.3333333 C18.7962382,19.4444444 18.5830721,19.5555556 18.369906,19.6666667 C18.1567398,19.7777778 18.0501567,19.7777778 17.6238245,19.7777778 L17.1974922,19.7777778 C15.492163,19.7777778 15.2789969,18.4444444 15.2789969,18.1111111 L15.2789969,15.2222222 C15.3855799,14.1111111 15.5987461,13.3333333 16.0250784,13 C16.3448276,12.7777778 16.7711599,12.8888889 17.5172414,13.1111111 C18.369906,13.4444444 19.0094044,14.4444444 19.0094044,14.4444444 C19.1159875,14.6666667 19.4357367,14.7777778 19.7554859,14.7777778 C20.0752351,14.6666667 20.1818182,14.4444444 20.1818182,14.1111111 L20.1818182,11.1111111 C20.1818182,10.7777778 19.862069,10.4444444 19.5423197,10.4444444 C19.2225705,10.4444444 18.9028213,10.7777778 18.9028213,11.1111111 L18.9028213,12.3333333 C18.6896552,12.1111111 18.369906,11.8888889 18.0501567,11.7777778 C17.6238245,11.5555556 16.4514107,11.1111111 15.3855799,11.6666667 C14.6394984,12.2222222 14.1065831,13.2222222 14,14.8888889 L14,18 C14.1065831,19 14.8526646,21 17.3040752,21 L17.6238245,21 C18.0501567,21 18.476489,21 18.9028213,20.7777778 C19.2225705,20.6666667 19.5423197,20.4444444 19.862069,20.1111111 C20.0752351,19.8888889 20.1818182,19.6666667 20.3949843,19.3333333 C20.6081505,18.8888889 20.7147335,18.1111111 20.8213166,17.8888889 L20.8213166,16.7777778 C20.8213166,16.5555556 20.5015674,16.2222222 20.1818182,16.2222222" id="Shape" fill="#FFFFFF"></path>
            </g>
        </g>
    </g>
</svg>