<?xml version="1.0" encoding="UTF-8"?>
<svg width="48px" height="48px" viewBox="0 0 48 48" version="1.1" xmlns="http://www.w3.org/2000/svg" xmlns:xlink="http://www.w3.org/1999/xlink">
    <!-- Generator: Sketch 49.3 (51167) - http://www.bohemiancoding.com/sketch -->
    <title>Group 2</title>
    <desc>Created with Sketch.</desc>
    <defs></defs>
    <g id="mDesinger-IPAD" stroke="none" stroke-width="1" fill="none" fill-rule="evenodd">
        <g id="主页" transform="translate(-101.000000, -216.000000)">
            <g id="Group-3" transform="translate(28.000000, 160.000000)">
                <g id="Group-2" transform="translate(73.000000, 56.000000)">
                    <circle id="Oval-3-Copy" fill="#4C97FF" cx="24" cy="24" r="24"></circle>
                    <path d="M31.9476283,24.8518378 L24.8524357,24.8518378 L24.8524357,31.9481622 C24.8524357,32.6396964 24.291577,33.2 23.6000214,33.2 C22.9084871,33.2 22.3476283,32.6396964 22.3476283,31.9481622 L22.3476283,24.8518378 L15.252393,24.8518378 C14.5602822,24.8518378 14,24.2915343 14,23.6 C14,22.9087219 14.5603463,22.3481622 15.252393,22.3481622 L22.3475856,22.3481622 L22.3475856,15.2518378 C22.3475856,14.5605598 22.9084444,14 23.5999786,14 C24.2915343,14 24.852393,14.5605811 24.852393,15.2518378 L24.852393,22.3481835 L31.9475856,22.3481835 C32.6396964,22.3481835 33.2,22.9087219 33.2,23.5999786 C33.1999786,24.2915129 32.6396964,24.8517738 31.9475856,24.8517738 L31.9476283,24.8518378 Z" id="Shape-Copy-2" fill="#FFFFFF" fill-rule="nonzero"></path>
                </g>
            </g>
        </g>
    </g>
</svg>